# Blender v2.93.5 OBJ File: ''
# www.blender.org
mtllib edit_skin_hand.mtl
o Player_Cube
v -0.297523 0.244203 -0.255826
v 0.194758 0.166759 -0.215068
v 0.147194 0.125461 0.280948
v -0.345088 0.202905 0.240190
v -0.545452 -1.417096 -0.417921
v -0.053170 -1.494540 -0.377162
v -0.100734 -1.535838 0.118854
v -0.593016 -1.458394 0.078095
vt 0.750000 0.375000
vt 0.812500 0.375000
vt 0.812500 0.500000
vt 0.750000 0.500000
vt 0.687500 0.375000
vt 0.750000 0.375000
vt 0.750000 0.500000
vt 0.687500 0.500000
vt 0.625000 0.375000
vt 0.625000 0.000000
vt 0.687500 0.000000
vt 0.750000 0.000000
vt 0.812500 0.000000
vt 0.812500 0.375000
vt 0.875000 0.000000
vt 0.875000 0.375000
vn 0.1469 0.9845 0.0961
vn -0.1469 -0.9845 -0.0961
vn -0.0951 -0.0826 0.9920
vn -0.9846 0.1549 -0.0815
vn 0.0951 0.0826 -0.9920
vn 0.9846 -0.1549 0.0815
usemtl Character
s off
f 1/1/1 4/2/1 3/3/1 2/4/1
f 8/5/2 5/6/2 6/7/2 7/8/2
f 7/9/3 3/10/3 4/11/3 8/5/3
f 8/5/4 4/11/4 1/12/4 5/6/4
f 5/6/5 1/12/5 2/13/5 6/14/5
f 6/14/6 2/13/6 3/15/6 7/16/6
